<svg width="120" height="33" viewBox="0 0 120 33" fill="none" xmlns="http://www.w3.org/2000/svg">
<g clip-path="url(#clip0)">
<path fill-rule="evenodd" clip-rule="evenodd" d="M24.2649 32.5364H8.28405C3.71095 32.5364 0 28.838 0 24.2649V8.28405C0 3.71095 3.71095 0 8.28405 0H24.2649C28.838 0 32.5489 3.71095 32.5489 8.28405V24.2649C32.5364 28.838 28.838 32.5364 24.2649 32.5364ZM12.3978 24.9031C11.2483 24.2783 10.3486 23.4037 9.69891 22.2917C9.04918 21.1796 8.72432 19.9302 8.72432 18.5557C8.72432 17.1688 9.04918 15.9318 9.69891 14.8198C10.3486 13.7077 11.2483 12.8456 12.3978 12.2084C13.5473 11.5836 14.8343 11.2713 16.2837 11.2713C17.7206 11.2713 19.02 11.5836 20.1695 12.2084C21.3191 12.8331 22.2187 13.7077 22.8684 14.8198C23.5182 15.9318 23.843 17.1813 23.843 18.5557C23.843 19.9426 23.5182 21.1796 22.8684 22.2917C22.2187 23.4037 21.3191 24.2658 20.1695 24.9031C19.02 25.5278 17.7331 25.8402 16.2837 25.8402C14.8343 25.8402 13.5473 25.5278 12.3978 24.9031ZM18.6952 22.5791C19.4199 22.1792 19.9696 21.6294 20.382 20.9297C20.7818 20.23 20.9817 19.4429 20.9817 18.5682C20.9817 17.6936 20.7818 16.9064 20.382 16.2067C19.9821 15.507 19.4199 14.9572 18.6952 14.5574C17.9705 14.1576 17.1708 13.9576 16.2712 13.9576C15.3715 13.9576 14.5719 14.1576 13.8472 14.5574C13.1225 14.9572 12.5727 15.507 12.1604 16.2067C11.7606 16.9064 11.5606 17.6936 11.5606 18.5682C11.5606 19.4429 11.7606 20.23 12.1604 20.9297C12.5602 21.6294 13.1225 22.1792 13.8472 22.5791C14.5719 22.9789 15.3715 23.1788 16.2712 23.1788C17.1708 23.1788 17.9705 22.9789 18.6952 22.5791ZM15.3719 9.50909L18.0708 4.72358H21.7443L17.8959 9.50909H15.3719Z" fill="#0058FF"/>
<path d="M45.4167 23.2565V15.01H43.2051V12.486H47.7032V14.2728C48.1655 13.6355 48.7653 13.1358 49.5149 12.7734C50.2646 12.4111 51.0893 12.2236 52.0139 12.2236C53.7382 12.2236 55.0876 12.7859 56.0997 13.8979C57.0993 15.01 57.5991 16.5218 57.5991 18.421V23.2565H59.5108V25.7805H52.7636V23.2565H55.0501V18.7584C55.0501 17.5339 54.7253 16.5593 54.0755 15.8346C53.4258 15.1099 52.5637 14.7476 51.4891 14.7476C50.8394 14.7476 50.2396 14.9225 49.6899 15.2849C49.1526 15.6347 48.7278 16.122 48.4154 16.7343C48.103 17.3465 47.9531 18.0212 47.9531 18.7709V23.269H50.2272V25.793H43.2051V23.269H45.4167V23.2565Z" fill="#0058FF"/>
<path d="M64.3845 25.1557C63.2974 24.556 62.4353 23.7438 61.8231 22.6818C61.1983 21.6322 60.8984 20.4452 60.8984 19.1332C60.8984 17.8213 61.2108 16.6343 61.8231 15.5847C62.4478 14.5352 63.2974 13.7105 64.3845 13.1108C65.4715 12.511 66.696 12.2236 68.0705 12.2236C69.4324 12.2236 70.6569 12.5235 71.7564 13.1108C72.8435 13.7105 73.7056 14.5227 74.3179 15.5847C74.9426 16.6343 75.2425 17.8213 75.2425 19.1332C75.2425 20.4452 74.9301 21.6322 74.3179 22.6818C73.6931 23.7313 72.8435 24.556 71.7564 25.1557C70.6694 25.7555 69.4449 26.0429 68.0705 26.0429C66.696 26.0429 65.4715 25.743 64.3845 25.1557ZM70.357 22.9442C71.0442 22.5693 71.569 22.0445 71.9564 21.3698C72.3312 20.7076 72.5311 19.9579 72.5311 19.1208C72.5311 18.2836 72.3437 17.5339 71.9564 16.8717C71.569 16.2095 71.0442 15.6847 70.357 15.2973C69.6698 14.9225 68.9076 14.7226 68.058 14.7226C67.2083 14.7226 66.4461 14.91 65.7589 15.2973C65.0717 15.6847 64.5469 16.197 64.1596 16.8717C63.7722 17.5339 63.5848 18.2836 63.5848 19.1208C63.5848 19.9579 63.7722 20.7076 64.1596 21.3698C64.5344 22.032 65.0717 22.5568 65.7589 22.9442C66.4461 23.3315 67.2083 23.5189 68.058 23.5189C68.9076 23.5189 69.6823 23.3315 70.357 22.9442Z" fill="#0058FF"/>
<path d="M76.2547 23.2556H78.7036V9.69875H76.1797V7.1748H81.2151V23.2556H83.814V25.7796H76.2422V23.2556H76.2547Z" fill="#0058FF"/>
<path d="M85.6875 23.2549H88.1615V15.0083H85.6875V12.4844H90.6854V23.2549H93.1344V25.7788H85.6875V23.2549Z" fill="#0058FF"/>
<path d="M97.0563 23.0732V14.8267H94.8447V12.3027H99.3429V14.027C99.7802 13.4023 100.367 12.915 101.092 12.5651C101.817 12.2153 102.616 12.0278 103.479 12.0278C105.54 12.0278 106.965 12.9025 107.764 14.6642C108.177 13.8646 108.801 13.2273 109.639 12.7525C110.476 12.2777 111.425 12.0403 112.475 12.0403C114.262 12.0403 115.649 12.5776 116.636 13.6646C117.623 14.7517 118.11 16.2636 118.11 18.2377V23.0732H119.997V25.5972H113.325V23.0732H115.536V18.5751C115.536 17.3006 115.249 16.3135 114.674 15.6138C114.099 14.9141 113.275 14.5643 112.212 14.5643C111.575 14.5643 111 14.7392 110.488 15.1016C109.976 15.4514 109.576 15.9387 109.276 16.5509C108.989 17.1632 108.839 17.8379 108.839 18.5876V23.0857H111.075V25.6097H104.053V23.0857H106.29V18.5876C106.29 17.3131 106.003 16.326 105.415 15.6263C104.828 14.9266 104.003 14.5768 102.941 14.5768C102.317 14.5768 101.754 14.7517 101.242 15.114C100.73 15.4639 100.33 15.9512 100.03 16.5634C99.7427 17.1757 99.5927 17.8504 99.5927 18.6001V23.0982H101.804V25.6222H94.8697V23.0982H97.0563V23.0732Z" fill="#0058FF"/>
<path d="M69.7675 6.00049L67.2061 10.5361H69.5926L73.2535 6.00049H69.7675Z" fill="#0058FF"/>
</g>
<defs>
<clipPath id="clip0">
<rect width="120" height="32.5364" fill="white"/>
</clipPath>
</defs>
</svg>
