<svg width="400" height="208" viewBox="0 0 400 208" fill="none" xmlns="http://www.w3.org/2000/svg">
<g clip-path="url(#clip0)">
<rect width="400" height="208" rx="10" fill="white"/>
<g clip-path="url(#clip1)">
<g filter="url(#filter0_d)">
<rect x="20" y="19.8516" width="360" height="217.297" rx="5.85821" fill="#F8F7F8"/>
<path d="M20 25.7098C20 22.4744 22.6228 19.8516 25.8582 19.8516H374.142C377.377 19.8516 380 22.4744 380 25.7098V36.0678H20V25.7098Z" fill="url(#paint0_linear)"/>
<circle cx="28.9197" cy="28.7713" r="2.43243" fill="#B2B2B2"/>
<circle cx="37.0281" cy="28.7708" r="2.43243" fill="#B2B2B2"/>
<circle cx="45.1365" cy="28.7708" r="2.43243" fill="#B2B2B2"/>
</g>
</g>
<line x1="36.6826" y1="105.368" x2="363.321" y2="105.368" stroke="#BBBBBB" stroke-width="0.59"/>
<line x1="36.6826" y1="132.217" x2="363.321" y2="132.217" stroke="#BBBBBB" stroke-width="0.59"/>
<rect x="36.6826" y="131.68" width="326.638" height="28.9749" fill="#BBBBBB"/>
<rect x="36.6826" y="159.919" width="326.638" height="27.6812" fill="#0058FF"/>
<rect x="36.9755" y="78.2748" width="326.052" height="109.033" stroke="#221E1E" stroke-width="0.585821"/>
<path d="M348.789 94.4512L344.593 89.3648H352.984L348.789 94.4512Z" fill="#221E1E"/>
<g opacity="0.8">
<path d="M44.6268 54.623V56.2839C43.8702 55.601 43.0352 55.2596 42.1217 55.2596C41.1252 55.2596 40.3132 55.5918 39.6857 56.2562C39.0675 56.9113 38.7584 57.751 38.7584 58.7752C38.7584 59.7625 39.0768 60.5883 39.7134 61.2526C40.3501 61.9077 41.1575 62.2353 42.1355 62.2353C43.049 62.2353 43.8794 61.8801 44.6268 61.1696V62.8443C43.8518 63.3056 43.0075 63.5363 42.094 63.5363C40.8114 63.5363 39.7226 63.1119 38.8276 62.263C37.8403 61.3403 37.3467 60.1777 37.3467 58.7752C37.3467 57.2988 37.8403 56.0947 38.8276 55.1628C39.6765 54.36 40.7884 53.9586 42.1632 53.9586C43.1136 53.9586 43.9348 54.1801 44.6268 54.623Z" fill="#221E1E"/>
<path d="M46.1232 63.3564V53.2666H47.4796V58.0278C47.9041 57.5941 48.4254 57.3773 49.0436 57.3773C49.8187 57.3773 50.3908 57.6402 50.7598 58.1662C51.009 58.526 51.1335 59.0658 51.1335 59.7855V63.3564H49.7772V59.9101C49.7772 59.4303 49.6895 59.0935 49.5142 58.8997C49.3296 58.6967 49.0759 58.5952 48.7529 58.5952C48.31 58.5952 47.9779 58.7567 47.7564 59.0797C47.5719 59.3472 47.4796 59.8363 47.4796 60.5468V63.3564H46.1232Z" fill="#221E1E"/>
<path d="M53.2869 58.2492C53.8867 57.6679 54.6295 57.3773 55.5153 57.3773C56.4011 57.3773 57.1392 57.6679 57.7298 58.2492C58.3295 58.8213 58.6294 59.5548 58.6294 60.4499C58.6294 61.3357 58.3295 62.0738 57.7298 62.6644C57.1392 63.2457 56.4011 63.5363 55.5153 63.5363C54.6295 63.5363 53.8867 63.2457 53.2869 62.6644C52.6964 62.0738 52.4011 61.3357 52.4011 60.4499C52.4011 59.5548 52.6964 58.8213 53.2869 58.2492ZM54.2558 61.8201C54.5695 62.1523 54.9893 62.3183 55.5153 62.3183C56.0412 62.3183 56.461 62.1523 56.7748 61.8201C57.0885 61.4787 57.2453 61.0266 57.2453 60.4637C57.2453 59.8455 57.0746 59.3795 56.7332 59.0658C56.4011 58.7521 55.9951 58.5952 55.5153 58.5952C55.0355 58.5952 54.6249 58.7521 54.2835 59.0658C53.9513 59.3795 53.7852 59.8455 53.7852 60.4637C53.7852 61.0266 53.9421 61.4787 54.2558 61.8201Z" fill="#221E1E"/>
<path d="M60.6262 58.2492C61.226 57.6679 61.9688 57.3773 62.8546 57.3773C63.7404 57.3773 64.4785 57.6679 65.0691 58.2492C65.6688 58.8213 65.9687 59.5548 65.9687 60.4499C65.9687 61.3357 65.6688 62.0738 65.0691 62.6644C64.4785 63.2457 63.7404 63.5363 62.8546 63.5363C61.9688 63.5363 61.226 63.2457 60.6262 62.6644C60.0357 62.0738 59.7404 61.3357 59.7404 60.4499C59.7404 59.5548 60.0357 58.8213 60.6262 58.2492ZM61.5951 61.8201C61.9088 62.1523 62.3286 62.3183 62.8546 62.3183C63.3805 62.3183 63.8003 62.1523 64.1141 61.8201C64.4278 61.4787 64.5846 61.0266 64.5846 60.4637C64.5846 59.8455 64.4139 59.3795 64.0725 59.0658C63.7404 58.7521 63.3344 58.5952 62.8546 58.5952C62.3748 58.5952 61.9642 58.7521 61.6228 59.0658C61.2906 59.3795 61.1245 59.8455 61.1245 60.4637C61.1245 61.0266 61.2814 61.4787 61.5951 61.8201Z" fill="#221E1E"/>
<path d="M70.9413 58.4015L69.9309 59.0658C69.7279 58.7336 69.4511 58.5675 69.1005 58.5675C68.9251 58.5675 68.7867 58.6183 68.6852 58.7198C68.6022 58.8028 68.5607 58.9043 68.5607 59.0243C68.5607 59.1627 68.6253 59.2734 68.7544 59.3565C68.7821 59.3749 68.8098 59.3934 68.8375 59.4118C68.8652 59.4211 68.9159 59.4441 68.9897 59.481C69.0635 59.5179 69.1374 59.5548 69.2112 59.5918L69.9032 59.9378C70.2907 60.1315 70.5629 60.3115 70.7198 60.4775C71.0058 60.7636 71.1489 61.1234 71.1489 61.5571C71.1489 62.0738 70.9782 62.5167 70.6368 62.8858C70.24 63.3195 69.6956 63.5363 69.0036 63.5363C68.4869 63.5363 68.067 63.4118 67.7441 63.1626C67.3934 62.9043 67.1443 62.549 66.9967 62.0969L68.1039 61.571C68.1962 61.8385 68.3023 62.0231 68.4223 62.1246C68.5699 62.2722 68.7683 62.346 69.0174 62.346C69.2573 62.346 69.4419 62.2814 69.571 62.1523C69.7002 62.0231 69.7648 61.8708 69.7648 61.6955C69.7648 61.5294 69.7048 61.3818 69.5849 61.2526C69.4557 61.1234 69.2619 61.0035 69.0036 60.8928L68.5053 60.6575C68.1178 60.4729 67.8502 60.3069 67.7026 60.1592C67.4257 59.8916 67.2873 59.5641 67.2873 59.1765C67.2873 58.6875 67.4488 58.2723 67.7718 57.9309C68.1224 57.5618 68.5976 57.3773 69.1973 57.3773C69.6126 57.3773 69.9724 57.4788 70.2769 57.6818C70.5537 57.8571 70.7752 58.097 70.9413 58.4015Z" fill="#221E1E"/>
<path d="M76.4547 61.391L77.5896 62.0277C77.3312 62.489 77.0037 62.8443 76.6069 63.0934C76.1548 63.3887 75.5827 63.5363 74.8907 63.5363C74.0787 63.5363 73.4236 63.2872 72.9253 62.7889C72.3532 62.2169 72.0672 61.4741 72.0672 60.5606C72.0672 59.601 72.3763 58.8028 72.9945 58.1662C73.5205 57.6402 74.171 57.3773 74.9461 57.3773C75.7027 57.3773 76.3255 57.631 76.8145 58.1385C77.3589 58.7013 77.6311 59.5225 77.6311 60.6021V60.7682H73.4513C73.4882 61.2572 73.6543 61.6494 73.9495 61.9447C74.1987 62.1938 74.5447 62.3183 74.9876 62.3183C75.3474 62.3183 75.6565 62.2215 75.9149 62.0277C76.1271 61.8616 76.307 61.6494 76.4547 61.391ZM73.5482 59.661H76.2471C76.1917 59.338 76.0533 59.075 75.8318 58.872C75.5919 58.6506 75.2875 58.5399 74.9184 58.5399C74.5308 58.5399 74.2125 58.6644 73.9634 58.9136C73.7604 59.0981 73.622 59.3472 73.5482 59.661Z" fill="#221E1E"/>
<path d="M86.542 58.2077V53.2666H87.8984V63.3564H86.542V62.7474C86.0899 63.2734 85.5085 63.5363 84.7981 63.5363C83.9399 63.5363 83.2525 63.2318 82.7358 62.6228C82.2283 62.0139 81.9746 61.2849 81.9746 60.436C81.9746 59.5133 82.2468 58.7752 82.7912 58.2215C83.3448 57.6587 84.0184 57.3773 84.8119 57.3773C85.5408 57.3773 86.1175 57.6541 86.542 58.2077ZM84.978 58.5952C84.4982 58.5952 84.106 58.7752 83.8015 59.135C83.5063 59.4949 83.3586 59.9378 83.3586 60.4637C83.3586 60.9804 83.5063 61.4187 83.8015 61.7786C84.106 62.1384 84.4982 62.3183 84.978 62.3183C85.4393 62.3183 85.8269 62.1569 86.1406 61.8339C86.4635 61.511 86.625 61.0589 86.625 60.4775C86.625 59.8778 86.4635 59.4164 86.1406 59.0935C85.8269 58.7613 85.4393 58.5952 84.978 58.5952Z" fill="#221E1E"/>
<path d="M89.6184 57.5295H90.9748V63.3564H89.6184V57.5295ZM89.6737 55.7441C89.5076 55.578 89.4246 55.3704 89.4246 55.1212C89.4246 54.8721 89.5076 54.6645 89.6737 54.4984C89.8398 54.3323 90.0474 54.2493 90.2966 54.2493C90.5457 54.2493 90.7533 54.3323 90.9194 54.4984C91.0855 54.6645 91.1685 54.8721 91.1685 55.1212C91.1685 55.3704 91.0855 55.578 90.9194 55.7441C90.7533 55.9102 90.5457 55.9932 90.2966 55.9932C90.0474 55.9932 89.8398 55.9102 89.6737 55.7441Z" fill="#221E1E"/>
<path d="M92.6866 63.3564V57.5295H94.0429V58.0554C94.2182 57.8525 94.4074 57.691 94.6104 57.571C94.8318 57.4418 95.1087 57.3773 95.4408 57.3773C95.8376 57.3773 96.1928 57.4695 96.5066 57.6541L95.9529 58.8859C95.7315 58.7475 95.5008 58.6783 95.2609 58.6783C94.901 58.6783 94.6196 58.7844 94.4166 58.9966C94.1675 59.2642 94.0429 59.7117 94.0429 60.3391V63.3564H92.6866Z" fill="#221E1E"/>
<path d="M100.933 61.391L102.067 62.0277C101.809 62.489 101.482 62.8443 101.085 63.0934C100.633 63.3887 100.061 63.5363 99.3685 63.5363C98.5565 63.5363 97.9014 63.2872 97.4032 62.7889C96.8311 62.2169 96.545 61.4741 96.545 60.5606C96.545 59.601 96.8542 58.8028 97.4724 58.1662C97.9983 57.6402 98.6488 57.3773 99.4239 57.3773C100.181 57.3773 100.803 57.631 101.292 58.1385C101.837 58.7013 102.109 59.5225 102.109 60.6021V60.7682H97.9291C97.966 61.2572 98.1321 61.6494 98.4274 61.9447C98.6765 62.1938 99.0225 62.3183 99.4654 62.3183C99.8253 62.3183 100.134 62.2215 100.393 62.0277C100.605 61.8616 100.785 61.6494 100.933 61.391ZM98.026 59.661H100.725C100.67 59.338 100.531 59.075 100.31 58.872C100.07 58.6506 99.7653 58.5399 99.3962 58.5399C99.0087 58.5399 98.6903 58.6644 98.4412 58.9136C98.2382 59.0981 98.0998 59.3472 98.026 59.661Z" fill="#221E1E"/>
<path d="M108.039 57.7925V59.3149C107.55 58.8351 107.001 58.5952 106.392 58.5952C105.875 58.5952 105.446 58.7659 105.104 59.1073C104.772 59.4395 104.606 59.887 104.606 60.4499C104.606 61.0312 104.781 61.4971 105.132 61.8478C105.464 62.1615 105.875 62.3183 106.364 62.3183C107.037 62.3183 107.596 62.0692 108.039 61.571V63.0796C107.55 63.3841 106.959 63.5363 106.267 63.5363C105.335 63.5363 104.597 63.2503 104.052 62.6782C103.499 62.1061 103.222 61.3772 103.222 60.4914C103.222 59.5779 103.517 58.8259 104.108 58.2354C104.68 57.6633 105.46 57.3773 106.447 57.3773C107.01 57.3773 107.54 57.5157 108.039 57.7925Z" fill="#221E1E"/>
<path d="M111.774 58.7752H110.736V63.3564H109.38V58.7752H108.813V57.5295H109.38V55.3981H110.736V57.5295H111.774V58.7752Z" fill="#221E1E"/>
<path d="M112.691 57.5295H114.047V63.3564H112.691V57.5295ZM112.746 55.7441C112.58 55.578 112.497 55.3704 112.497 55.1212C112.497 54.8721 112.58 54.6645 112.746 54.4984C112.912 54.3323 113.12 54.2493 113.369 54.2493C113.618 54.2493 113.825 54.3323 113.992 54.4984C114.158 54.6645 114.241 54.8721 114.241 55.1212C114.241 55.3704 114.158 55.578 113.992 55.7441C113.825 55.9102 113.618 55.9932 113.369 55.9932C113.12 55.9932 112.912 55.9102 112.746 55.7441Z" fill="#221E1E"/>
<path d="M116.34 58.2492C116.94 57.6679 117.683 57.3773 118.568 57.3773C119.454 57.3773 120.192 57.6679 120.783 58.2492C121.383 58.8213 121.682 59.5548 121.682 60.4499C121.682 61.3357 121.383 62.0738 120.783 62.6644C120.192 63.2457 119.454 63.5363 118.568 63.5363C117.683 63.5363 116.94 63.2457 116.34 62.6644C115.749 62.0738 115.454 61.3357 115.454 60.4499C115.454 59.5548 115.749 58.8213 116.34 58.2492ZM117.309 61.8201C117.623 62.1523 118.042 62.3183 118.568 62.3183C119.094 62.3183 119.514 62.1523 119.828 61.8201C120.142 61.4787 120.298 61.0266 120.298 60.4637C120.298 59.8455 120.128 59.3795 119.786 59.0658C119.454 58.7521 119.048 58.5952 118.568 58.5952C118.089 58.5952 117.678 58.7521 117.337 59.0658C117.004 59.3795 116.838 59.8455 116.838 60.4637C116.838 61.0266 116.995 61.4787 117.309 61.8201Z" fill="#221E1E"/>
<path d="M123.084 63.3564V57.5295H124.441V58.0693C124.856 57.6079 125.382 57.3773 126.018 57.3773C126.784 57.3773 127.356 57.6402 127.735 58.1662C127.975 58.5076 128.094 59.0474 128.094 59.7855V63.3564H126.738V60.1177C126.738 59.7671 126.71 59.481 126.655 59.2596C126.6 59.0381 126.512 58.8859 126.392 58.8028C126.272 58.7106 126.161 58.6552 126.06 58.6368C125.968 58.6091 125.838 58.5952 125.672 58.5952C125.479 58.5952 125.322 58.6137 125.202 58.6506C125.091 58.6783 124.966 58.7521 124.828 58.872C124.699 58.9828 124.602 59.1811 124.537 59.4672C124.473 59.744 124.441 60.1085 124.441 60.5606V63.3564H123.084Z" fill="#221E1E"/>
</g>
<g opacity="0.5">
<path d="M72.6299 94.5907H71.8936L72.969 87.77L75.4492 93.2246L77.9779 87.7604L78.9855 94.5907H78.2492L77.6388 90.0953L75.4395 94.862L73.2693 90.0953L72.6299 94.5907Z" fill="#221E1E"/>
<path d="M83.3867 91.1416V90.57H84.0843V94.5907H83.3867V94.0288C83.038 94.4809 82.5794 94.7069 82.011 94.7069C81.4684 94.7069 81.0066 94.5196 80.6255 94.145C80.2445 93.7704 80.0539 93.2472 80.0539 92.5755C80.0539 91.9167 80.2412 91.4032 80.6159 91.035C80.9969 90.6604 81.462 90.4731 82.011 90.4731C82.5923 90.4731 83.0509 90.6959 83.3867 91.1416ZM82.0885 91.0932C81.7203 91.0932 81.4071 91.2256 81.1487 91.4904C80.8968 91.7488 80.7709 92.1105 80.7709 92.5755C80.7709 93.0212 80.8871 93.3861 81.1197 93.6703C81.3586 93.948 81.6816 94.0869 82.0885 94.0869C82.4954 94.0869 82.8184 93.9416 83.0573 93.6509C83.3028 93.3603 83.4255 93.005 83.4255 92.5852C83.4255 92.1072 83.2899 91.7391 83.0186 91.4807C82.7473 91.2223 82.4373 91.0932 82.0885 91.0932Z" fill="#221E1E"/>
<path d="M85.4055 94.5907V90.57H86.1031V91.006C86.3291 90.6507 86.6327 90.4731 87.0138 90.4731C87.2075 90.4731 87.4142 90.528 87.6338 90.6378L87.3044 91.2676C87.1752 91.1771 87.0396 91.1319 86.8975 91.1319C86.6521 91.1319 86.4648 91.2159 86.3356 91.3838C86.1806 91.5905 86.1031 91.9522 86.1031 92.4689V94.5907H85.4055Z" fill="#221E1E"/>
<path d="M88.2723 87.5278H88.9698V92.062L90.4425 90.57H91.3532L89.6287 92.2945L91.6632 94.5907H90.7525L89.1442 92.7596L88.9698 92.934V94.5907H88.2723V87.5278Z" fill="#221E1E"/>
<path d="M95.249 93.244L95.8303 93.5637C95.6947 93.8221 95.53 94.0384 95.3362 94.2128C94.968 94.5422 94.5224 94.7069 93.9992 94.7069C93.4566 94.7069 92.9884 94.5326 92.5944 94.1838C92.2068 93.8285 92.0131 93.3021 92.0131 92.6046C92.0131 91.991 92.1875 91.4839 92.5362 91.0835C92.8915 90.6766 93.3662 90.4731 93.9604 90.4731C94.6322 90.4731 95.1392 90.7185 95.4815 91.2094C95.7528 91.597 95.8787 92.1008 95.8594 92.7208H92.73C92.7365 93.1277 92.8624 93.4571 93.1079 93.709C93.3533 93.9609 93.6536 94.0869 94.0089 94.0869C94.3254 94.0869 94.5999 93.99 94.8324 93.7962C95.0132 93.6412 95.1521 93.4571 95.249 93.244ZM92.7784 92.1395H95.1424C95.0843 91.823 94.9454 91.5711 94.7258 91.3838C94.5127 91.1901 94.2575 91.0932 93.9604 91.0932C93.6698 91.0932 93.4114 91.1933 93.1854 91.3935C92.9658 91.5873 92.8301 91.8359 92.7784 92.1395Z" fill="#221E1E"/>
<path d="M98.3439 91.2094H97.6463V94.5907H96.9488V91.2094H96.5225V90.57H96.9488V89.1167H97.6463V90.57H98.3439V91.2094Z" fill="#221E1E"/>
<path d="M99.0014 90.57H99.699V94.5907H99.0014V90.57ZM99.0014 89.3977C98.9046 89.3008 98.8561 89.1846 98.8561 89.0489C98.8561 88.9133 98.9046 88.797 99.0014 88.7001C99.0983 88.6032 99.2146 88.5548 99.3502 88.5548C99.4859 88.5548 99.6021 88.6032 99.699 88.7001C99.7959 88.797 99.8443 88.9133 99.8443 89.0489C99.8443 89.1846 99.7959 89.3008 99.699 89.3977C99.6021 89.4946 99.4859 89.543 99.3502 89.543C99.2146 89.543 99.0983 89.4946 99.0014 89.3977Z" fill="#221E1E"/>
<path d="M101.017 94.5907V90.57H101.714V91.035C101.998 90.6604 102.383 90.4731 102.867 90.4731C103.384 90.4731 103.768 90.6572 104.02 91.0253C104.175 91.2514 104.253 91.6099 104.253 92.1008V94.5907H103.555V92.1201C103.555 91.7907 103.494 91.5453 103.371 91.3838C103.222 91.1901 103.003 91.0932 102.712 91.0932C102.415 91.0932 102.179 91.1965 102.005 91.4032C101.811 91.6293 101.714 91.991 101.714 92.4883V94.5907H101.017Z" fill="#221E1E"/>
<path d="M108.649 91.1416V90.57H109.346V94.4938C109.346 95.1978 109.217 95.7242 108.959 96.073C108.59 96.5704 108.054 96.819 107.35 96.819C106.756 96.819 106.278 96.6382 105.916 96.2765C105.568 95.9277 105.393 95.4949 105.393 94.9782H106.081C106.081 95.3012 106.184 95.5789 106.391 95.8114C106.624 96.0698 106.947 96.199 107.36 96.199C107.844 96.199 108.2 96.0117 108.426 95.637C108.574 95.3981 108.649 95.0557 108.649 94.6101V94.0288C108.3 94.4809 107.841 94.7069 107.273 94.7069C106.717 94.7069 106.259 94.5261 105.897 94.1644C105.509 93.7769 105.316 93.2472 105.316 92.5755C105.316 91.9231 105.509 91.4032 105.897 91.0157C106.272 90.654 106.73 90.4731 107.273 90.4731C107.848 90.4731 108.306 90.6959 108.649 91.1416ZM107.35 91.0932C106.995 91.0932 106.691 91.2191 106.44 91.471C106.168 91.7488 106.033 92.1169 106.033 92.5755C106.033 93.0858 106.184 93.4797 106.488 93.7575C106.727 93.9771 107.014 94.0869 107.35 94.0869C107.712 94.0869 108.006 93.9739 108.232 93.7478C108.535 93.4571 108.687 93.0696 108.687 92.5852C108.687 92.1008 108.545 91.7229 108.261 91.4516C108.022 91.2127 107.718 91.0932 107.35 91.0932Z" fill="#221E1E"/>
</g>
<g opacity="0.5">
<path d="M72.1172 121.44V114.978H73.4348C74.4295 114.978 75.2239 115.23 75.8182 115.734C76.5545 116.347 76.9226 117.174 76.9226 118.214C76.9226 119.222 76.5448 120.048 75.7891 120.694C75.4791 120.959 75.1464 121.15 74.7912 121.266C74.4359 121.382 73.9806 121.44 73.4251 121.44H72.1172ZM72.8341 115.656V120.762H73.4639C74.2325 120.762 74.8493 120.568 75.3144 120.181C75.8957 119.69 76.1863 119.034 76.1863 118.214C76.1863 117.439 75.9377 116.819 75.4403 116.354C74.943 115.889 74.2842 115.656 73.4639 115.656H72.8341Z" fill="#221E1E"/>
<path d="M81.0483 120.094L81.6296 120.413C81.494 120.672 81.3293 120.888 81.1355 121.062C80.7674 121.392 80.3217 121.556 79.7985 121.556C79.256 121.556 78.7877 121.382 78.3937 121.033C78.0062 120.678 77.8124 120.152 77.8124 119.454C77.8124 118.84 77.9868 118.333 78.3356 117.933C78.6908 117.526 79.1655 117.323 79.7598 117.323C80.4315 117.323 80.9385 117.568 81.2808 118.059C81.5521 118.446 81.6781 118.95 81.6587 119.57H78.5293C78.5358 119.977 78.6617 120.307 78.9072 120.559C79.1526 120.81 79.453 120.936 79.8082 120.936C80.1247 120.936 80.3992 120.84 80.6317 120.646C80.8126 120.491 80.9514 120.307 81.0483 120.094ZM78.5778 118.989H80.9417C80.8836 118.673 80.7447 118.421 80.5251 118.233C80.312 118.04 80.0569 117.943 79.7598 117.943C79.4691 117.943 79.2107 118.043 78.9847 118.243C78.7651 118.437 78.6294 118.685 78.5778 118.989Z" fill="#221E1E"/>
<path d="M84.9571 118.049L84.3854 118.35C84.2756 118.078 84.0883 117.943 83.8235 117.943C83.6879 117.943 83.5716 117.981 83.4747 118.059C83.3843 118.136 83.3391 118.249 83.3391 118.398C83.3391 118.534 83.3811 118.637 83.465 118.708C83.5555 118.773 83.7299 118.86 83.9882 118.97C84.4985 119.183 84.8343 119.389 84.9958 119.59C85.1379 119.764 85.209 119.98 85.209 120.239C85.209 120.646 85.0766 120.969 84.8117 121.208C84.5534 121.44 84.224 121.556 83.8235 121.556C83.746 121.556 83.662 121.547 83.5716 121.527C83.4812 121.514 83.3552 121.482 83.1938 121.431C83.0388 121.372 82.8902 121.266 82.7481 121.111C82.606 120.956 82.4962 120.762 82.4187 120.529L83.0194 120.278C83.1809 120.717 83.4521 120.936 83.8332 120.936C84.0463 120.936 84.2078 120.872 84.3176 120.743C84.4339 120.613 84.492 120.465 84.492 120.297C84.492 120.207 84.4759 120.129 84.4436 120.064C84.4177 119.993 84.3693 119.932 84.2982 119.88C84.2337 119.829 84.1691 119.787 84.1045 119.754C84.0463 119.722 83.9592 119.68 83.8429 119.628C83.3262 119.402 83 119.205 82.8644 119.037C82.7416 118.882 82.6803 118.685 82.6803 118.446C82.6803 118.098 82.7869 117.823 83 117.623C83.2196 117.423 83.5038 117.323 83.8526 117.323C84.3628 117.323 84.731 117.565 84.9571 118.049Z" fill="#221E1E"/>
<path d="M86.1348 117.42H86.8324V121.44H86.1348V117.42ZM86.1348 116.247C86.0379 116.15 85.9895 116.034 85.9895 115.898C85.9895 115.763 86.0379 115.647 86.1348 115.55C86.2317 115.453 86.348 115.404 86.4836 115.404C86.6192 115.404 86.7355 115.453 86.8324 115.55C86.9293 115.647 86.9777 115.763 86.9777 115.898C86.9777 116.034 86.9293 116.15 86.8324 116.247C86.7355 116.344 86.6192 116.393 86.4836 116.393C86.348 116.393 86.2317 116.344 86.1348 116.247Z" fill="#221E1E"/>
<path d="M91.231 117.991V117.42H91.9286V121.343C91.9286 122.047 91.7994 122.574 91.541 122.923C91.1729 123.42 90.6368 123.669 89.9327 123.669C89.3385 123.669 88.8606 123.488 88.4989 123.126C88.1501 122.777 87.9757 122.344 87.9757 121.828H88.6636C88.6636 122.151 88.7669 122.428 88.9736 122.661C89.2061 122.919 89.5291 123.048 89.9424 123.048C90.4269 123.048 90.7821 122.861 91.0082 122.487C91.1567 122.248 91.231 121.905 91.231 121.46V120.878C90.8822 121.33 90.4236 121.556 89.8552 121.556C89.2998 121.556 88.8412 121.376 88.4795 121.014C88.0919 120.626 87.8982 120.097 87.8982 119.425C87.8982 118.773 88.0919 118.253 88.4795 117.865C88.8541 117.503 89.3127 117.323 89.8552 117.323C90.4301 117.323 90.8887 117.545 91.231 117.991ZM89.9327 117.943C89.5775 117.943 89.2739 118.069 89.022 118.321C88.7508 118.598 88.6151 118.966 88.6151 119.425C88.6151 119.935 88.7669 120.329 89.0705 120.607C89.3095 120.827 89.5969 120.936 89.9327 120.936C90.2944 120.936 90.5883 120.823 90.8144 120.597C91.118 120.307 91.2697 119.919 91.2697 119.435C91.2697 118.95 91.1276 118.572 90.8435 118.301C90.6045 118.062 90.3009 117.943 89.9327 117.943Z" fill="#221E1E"/>
<path d="M93.2497 121.44V117.42H93.9473V117.885C94.2315 117.51 94.6158 117.323 95.1002 117.323C95.6169 117.323 96.0012 117.507 96.2531 117.875C96.4082 118.101 96.4857 118.459 96.4857 118.95V121.44H95.7881V118.97C95.7881 118.64 95.7267 118.395 95.604 118.233C95.4555 118.04 95.2359 117.943 94.9452 117.943C94.6481 117.943 94.4123 118.046 94.238 118.253C94.0442 118.479 93.9473 118.84 93.9473 119.338V121.44H93.2497Z" fill="#221E1E"/>
</g>
<path d="M72.1172 143.099H73.2895C74.0258 143.099 74.5684 143.25 74.9171 143.554C75.3111 143.89 75.5081 144.352 75.5081 144.939C75.5081 145.443 75.337 145.873 74.9946 146.228C74.6588 146.577 74.1485 146.751 73.4639 146.751H72.8341V149.561H72.1172V143.099ZM72.8341 143.777V146.073H73.4251C73.8514 146.073 74.184 145.97 74.423 145.763C74.6685 145.556 74.7912 145.269 74.7912 144.901C74.7912 144.151 74.3165 143.777 73.367 143.777H72.8341Z" fill="white"/>
<path d="M76.3612 149.561V145.54H77.0588V145.976C77.2849 145.621 77.5884 145.443 77.9695 145.443C78.1633 145.443 78.37 145.498 78.5896 145.608L78.2602 146.238C78.131 146.147 77.9954 146.102 77.8533 146.102C77.6078 146.102 77.4205 146.186 77.2913 146.354C77.1363 146.561 77.0588 146.922 77.0588 147.439V149.561H76.3612Z" fill="white"/>
<path d="M82.3921 149.076C81.9917 149.477 81.4846 149.677 80.871 149.677C80.2574 149.677 79.7472 149.477 79.3403 149.076C78.9398 148.676 78.7396 148.172 78.7396 147.565C78.7396 146.951 78.9398 146.444 79.3403 146.044C79.7472 145.643 80.2574 145.443 80.871 145.443C81.4846 145.443 81.9917 145.643 82.3921 146.044C82.799 146.444 83.0025 146.951 83.0025 147.565C83.0025 148.172 82.799 148.676 82.3921 149.076ZM81.869 146.461C81.5977 146.196 81.265 146.063 80.871 146.063C80.4771 146.063 80.1412 146.199 79.8635 146.47C79.5922 146.735 79.4565 147.1 79.4565 147.565C79.4565 148.03 79.5954 148.395 79.8731 148.66C80.1509 148.925 80.4835 149.057 80.871 149.057C81.2586 149.057 81.5912 148.925 81.869 148.66C82.1467 148.395 82.2856 148.03 82.2856 147.565C82.2856 147.093 82.1467 146.725 81.869 146.461Z" fill="white"/>
<path d="M87.1532 146.112V145.54H87.8507V149.464C87.8507 150.168 87.7215 150.694 87.4632 151.043C87.095 151.54 86.5589 151.789 85.8549 151.789C85.2607 151.789 84.7827 151.608 84.421 151.247C84.0722 150.898 83.8978 150.465 83.8978 149.948H84.5857C84.5857 150.271 84.6891 150.549 84.8958 150.782C85.1283 151.04 85.4512 151.169 85.8646 151.169C86.349 151.169 86.7043 150.982 86.9303 150.607C87.0789 150.368 87.1532 150.026 87.1532 149.58V148.999C86.8044 149.451 86.3458 149.677 85.7774 149.677C85.2219 149.677 84.7633 149.496 84.4016 149.135C84.0141 148.747 83.8203 148.217 83.8203 147.546C83.8203 146.893 84.0141 146.373 84.4016 145.986C84.7763 145.624 85.2348 145.443 85.7774 145.443C86.3522 145.443 86.8108 145.666 87.1532 146.112ZM85.8549 146.063C85.4997 146.063 85.1961 146.189 84.9442 146.441C84.6729 146.719 84.5373 147.087 84.5373 147.546C84.5373 148.056 84.6891 148.45 84.9926 148.728C85.2316 148.947 85.519 149.057 85.8549 149.057C86.2166 149.057 86.5105 148.944 86.7366 148.718C87.0401 148.427 87.1919 148.04 87.1919 147.555C87.1919 147.071 87.0498 146.693 86.7656 146.422C86.5266 146.183 86.2231 146.063 85.8549 146.063Z" fill="white"/>
<path d="M89.1719 149.561V145.54H89.8695V145.976C90.0955 145.621 90.3991 145.443 90.7802 145.443C90.9739 145.443 91.1806 145.498 91.4002 145.608L91.0708 146.238C90.9417 146.147 90.806 146.102 90.6639 146.102C90.4185 146.102 90.2312 146.186 90.102 146.354C89.947 146.561 89.8695 146.922 89.8695 147.439V149.561H89.1719Z" fill="white"/>
<path d="M94.9115 146.112V145.54H95.609V149.561H94.9115V148.999C94.5627 149.451 94.1041 149.677 93.5357 149.677C92.9931 149.677 92.5313 149.49 92.1503 149.115C91.7692 148.741 91.5786 148.217 91.5786 147.546C91.5786 146.887 91.7659 146.373 92.1406 146.005C92.5216 145.631 92.9867 145.443 93.5357 145.443C94.117 145.443 94.5756 145.666 94.9115 146.112ZM93.6132 146.063C93.245 146.063 92.9318 146.196 92.6734 146.461C92.4215 146.719 92.2956 147.081 92.2956 147.546C92.2956 147.991 92.4118 148.356 92.6444 148.64C92.8833 148.918 93.2063 149.057 93.6132 149.057C94.0201 149.057 94.3431 148.912 94.582 148.621C94.8275 148.33 94.9502 147.975 94.9502 147.555C94.9502 147.077 94.8146 146.709 94.5433 146.451C94.272 146.192 93.962 146.063 93.6132 146.063Z" fill="white"/>
<path d="M96.9302 149.561V145.54H97.6278V145.966C97.8667 145.618 98.1994 145.443 98.6257 145.443C99.1101 145.443 99.475 145.66 99.7205 146.092C99.9982 145.66 100.402 145.443 100.932 145.443C101.803 145.443 102.239 145.966 102.239 147.013V149.561H101.542V147.119C101.542 146.926 101.529 146.764 101.503 146.635C101.484 146.499 101.416 146.37 101.3 146.247C101.19 146.125 101.032 146.063 100.825 146.063C100.231 146.063 99.9336 146.483 99.9336 147.323V149.561H99.236V147.177C99.236 146.435 98.9938 146.063 98.5094 146.063C97.9216 146.063 97.6278 146.499 97.6278 147.371V149.561H96.9302Z" fill="white"/>
<path d="M103.563 149.561V145.54H104.26V145.966C104.499 145.618 104.832 145.443 105.258 145.443C105.742 145.443 106.107 145.66 106.353 146.092C106.631 145.66 107.034 145.443 107.564 145.443C108.436 145.443 108.872 145.966 108.872 147.013V149.561H108.174V147.119C108.174 146.926 108.161 146.764 108.136 146.635C108.116 146.499 108.048 146.37 107.932 146.247C107.822 146.125 107.664 146.063 107.457 146.063C106.863 146.063 106.566 146.483 106.566 147.323V149.561H105.868V147.177C105.868 146.435 105.626 146.063 105.142 146.063C104.554 146.063 104.26 146.499 104.26 147.371V149.561H103.563Z" fill="white"/>
<path d="M110.195 145.54H110.893V149.561H110.195V145.54ZM110.195 144.368C110.098 144.271 110.05 144.155 110.05 144.019C110.05 143.883 110.098 143.767 110.195 143.67C110.292 143.573 110.408 143.525 110.544 143.525C110.679 143.525 110.796 143.573 110.893 143.67C110.989 143.767 111.038 143.883 111.038 144.019C111.038 144.155 110.989 144.271 110.893 144.368C110.796 144.465 110.679 144.513 110.544 144.513C110.408 144.513 110.292 144.465 110.195 144.368Z" fill="white"/>
<path d="M112.21 149.561V145.54H112.908V146.005C113.192 145.631 113.576 145.443 114.061 145.443C114.577 145.443 114.962 145.627 115.214 145.995C115.369 146.222 115.446 146.58 115.446 147.071V149.561H114.749V147.09C114.749 146.761 114.687 146.515 114.565 146.354C114.416 146.16 114.196 146.063 113.906 146.063C113.609 146.063 113.373 146.167 113.198 146.373C113.005 146.599 112.908 146.961 112.908 147.458V149.561H112.21Z" fill="white"/>
<path d="M119.842 146.112V145.54H120.54V149.464C120.54 150.168 120.41 150.694 120.152 151.043C119.784 151.54 119.248 151.789 118.544 151.789C117.95 151.789 117.472 151.608 117.11 151.247C116.761 150.898 116.587 150.465 116.587 149.948H117.275C117.275 150.271 117.378 150.549 117.585 150.782C117.817 151.04 118.14 151.169 118.554 151.169C119.038 151.169 119.393 150.982 119.619 150.607C119.768 150.368 119.842 150.026 119.842 149.58V148.999C119.493 149.451 119.035 149.677 118.466 149.677C117.911 149.677 117.452 149.496 117.091 149.135C116.703 148.747 116.509 148.217 116.509 147.546C116.509 146.893 116.703 146.373 117.091 145.986C117.465 145.624 117.924 145.443 118.466 145.443C119.041 145.443 119.5 145.666 119.842 146.112ZM118.544 146.063C118.189 146.063 117.885 146.189 117.633 146.441C117.362 146.719 117.226 147.087 117.226 147.546C117.226 148.056 117.378 148.45 117.682 148.728C117.921 148.947 118.208 149.057 118.544 149.057C118.906 149.057 119.199 148.944 119.425 148.718C119.729 148.427 119.881 148.04 119.881 147.555C119.881 147.071 119.739 146.693 119.455 146.422C119.216 146.183 118.912 146.063 118.544 146.063Z" fill="white"/>
<path d="M72.6299 176.522H71.8936L72.969 169.701L75.4492 175.156L77.9779 169.692L78.9855 176.522H78.2492L77.6388 172.026L75.4395 176.793L73.2693 172.026L72.6299 176.522Z" fill="white"/>
<path d="M83.3867 173.073V172.501H84.0843V176.522H83.3867V175.96C83.038 176.412 82.5794 176.638 82.011 176.638C81.4684 176.638 81.0066 176.451 80.6255 176.076C80.2445 175.702 80.0539 175.178 80.0539 174.507C80.0539 173.848 80.2412 173.334 80.6159 172.966C80.9969 172.592 81.462 172.404 82.011 172.404C82.5923 172.404 83.0509 172.627 83.3867 173.073ZM82.0885 173.024C81.7203 173.024 81.4071 173.157 81.1487 173.422C80.8968 173.68 80.7709 174.042 80.7709 174.507C80.7709 174.952 80.8871 175.317 81.1197 175.601C81.3586 175.879 81.6816 176.018 82.0885 176.018C82.4954 176.018 82.8184 175.873 83.0573 175.582C83.3028 175.291 83.4255 174.936 83.4255 174.516C83.4255 174.038 83.2899 173.67 83.0186 173.412C82.7473 173.153 82.4373 173.024 82.0885 173.024Z" fill="white"/>
<path d="M85.4055 176.522V172.501H86.1031V172.937C86.3291 172.582 86.6327 172.404 87.0138 172.404C87.2075 172.404 87.4142 172.459 87.6338 172.569L87.3044 173.199C87.1752 173.108 87.0396 173.063 86.8975 173.063C86.6521 173.063 86.4648 173.147 86.3356 173.315C86.1806 173.522 86.1031 173.883 86.1031 174.4V176.522H85.4055Z" fill="white"/>
<path d="M88.2723 169.459H88.9698V173.993L90.4425 172.501H91.3532L89.6287 174.226L91.6632 176.522H90.7525L89.1442 174.691L88.9698 174.865V176.522H88.2723V169.459Z" fill="white"/>
<path d="M95.249 175.175L95.8303 175.495C95.6947 175.753 95.53 175.97 95.3362 176.144C94.968 176.473 94.5224 176.638 93.9992 176.638C93.4566 176.638 92.9884 176.464 92.5944 176.115C92.2068 175.76 92.0131 175.233 92.0131 174.536C92.0131 173.922 92.1875 173.415 92.5362 173.015C92.8915 172.608 93.3662 172.404 93.9604 172.404C94.6322 172.404 95.1392 172.65 95.4815 173.141C95.7528 173.528 95.8787 174.032 95.8594 174.652H92.73C92.7365 175.059 92.8624 175.388 93.1079 175.64C93.3533 175.892 93.6536 176.018 94.0089 176.018C94.3254 176.018 94.5999 175.921 94.8324 175.727C95.0132 175.572 95.1521 175.388 95.249 175.175ZM92.7784 174.071H95.1424C95.0843 173.754 94.9454 173.502 94.7258 173.315C94.5127 173.121 94.2575 173.024 93.9604 173.024C93.6698 173.024 93.4114 173.124 93.1854 173.325C92.9658 173.518 92.8301 173.767 92.7784 174.071Z" fill="white"/>
<path d="M98.3439 173.141H97.6463V176.522H96.9488V173.141H96.5225V172.501H96.9488V171.048H97.6463V172.501H98.3439V173.141Z" fill="white"/>
<path d="M99.0014 172.501H99.699V176.522H99.0014V172.501ZM99.0014 171.329C98.9046 171.232 98.8561 171.116 98.8561 170.98C98.8561 170.844 98.9046 170.728 99.0014 170.631C99.0983 170.534 99.2146 170.486 99.3502 170.486C99.4859 170.486 99.6021 170.534 99.699 170.631C99.7959 170.728 99.8443 170.844 99.8443 170.98C99.8443 171.116 99.7959 171.232 99.699 171.329C99.6021 171.426 99.4859 171.474 99.3502 171.474C99.2146 171.474 99.0983 171.426 99.0014 171.329Z" fill="white"/>
<path d="M101.017 176.522V172.501H101.714V172.966C101.998 172.592 102.383 172.404 102.867 172.404C103.384 172.404 103.768 172.588 104.02 172.957C104.175 173.183 104.253 173.541 104.253 174.032V176.522H103.555V174.051C103.555 173.722 103.494 173.476 103.371 173.315C103.222 173.121 103.003 173.024 102.712 173.024C102.415 173.024 102.179 173.128 102.005 173.334C101.811 173.56 101.714 173.922 101.714 174.419V176.522H101.017Z" fill="white"/>
<path d="M108.649 173.073V172.501H109.346V176.425C109.346 177.129 109.217 177.655 108.959 178.004C108.59 178.502 108.054 178.75 107.35 178.75C106.756 178.75 106.278 178.569 105.916 178.208C105.568 177.859 105.393 177.426 105.393 176.909H106.081C106.081 177.232 106.184 177.51 106.391 177.743C106.624 178.001 106.947 178.13 107.36 178.13C107.844 178.13 108.2 177.943 108.426 177.568C108.574 177.329 108.649 176.987 108.649 176.541V175.96C108.3 176.412 107.841 176.638 107.273 176.638C106.717 176.638 106.259 176.457 105.897 176.096C105.509 175.708 105.316 175.178 105.316 174.507C105.316 173.854 105.509 173.334 105.897 172.947C106.272 172.585 106.73 172.404 107.273 172.404C107.848 172.404 108.306 172.627 108.649 173.073ZM107.35 173.024C106.995 173.024 106.691 173.15 106.44 173.402C106.168 173.68 106.033 174.048 106.033 174.507C106.033 175.017 106.184 175.411 106.488 175.689C106.727 175.908 107.014 176.018 107.35 176.018C107.712 176.018 108.006 175.905 108.232 175.679C108.535 175.388 108.687 175.001 108.687 174.516C108.687 174.032 108.545 173.654 108.261 173.383C108.022 173.144 107.718 173.024 107.35 173.024Z" fill="white"/>
<g clip-path="url(#clip2)">
<path d="M59.8695 113.006C59.6528 112.789 59.365 112.668 59.0589 112.665C59.0544 112.665 59.0499 112.665 59.0455 112.665C58.7443 112.665 58.4589 112.779 58.2407 112.987L51.7461 119.198C52.4413 119.375 53.0351 119.821 53.4233 120.473C53.5416 120.672 53.6357 120.883 53.7059 121.1L59.8879 114.635C60.096 114.417 60.2107 114.131 60.2107 113.83C60.2107 113.519 60.0896 113.226 59.8695 113.006Z" fill="#221E1E"/>
<path d="M51.1437 119.924C51.111 119.923 51.0784 119.922 51.0457 119.922C50.4977 119.922 49.9541 120.113 49.5107 120.432C48.9762 120.816 48.7631 121.369 48.3706 121.872C47.8785 122.503 47.1215 122.811 46.3701 123.022C46.8077 124.178 48.4332 124.652 49.4992 124.677C49.5375 124.678 49.5759 124.679 49.6147 124.679C50.8216 124.679 52.2431 124.23 52.8249 123.043C53.4636 121.739 52.6763 119.989 51.1437 119.924Z" fill="#0058FF"/>
</g>
<g clip-path="url(#clip3)">
<rect x="48.3096" y="141.781" width="9.96153" height="8.80603" fill="#0058FF"/>
<path d="M58.2519 141.104H48.3289C47.2489 141.104 46.3701 141.983 46.3701 143.063V149.271C46.3701 150.352 47.2489 151.23 48.3289 151.23H58.2519C59.3319 151.23 60.2107 150.352 60.2107 149.271V143.063C60.2107 141.983 59.3319 141.104 58.2519 141.104V141.104ZM51.393 144.221L49.3323 146.281L51.1649 148.114C51.3233 148.272 51.3233 148.529 51.1649 148.687C51.0067 148.846 50.7499 148.846 50.5915 148.687L48.4722 146.568C48.3137 146.409 48.3137 146.153 48.4722 145.994L50.8194 143.647C50.9778 143.489 51.2346 143.489 51.393 143.647C51.5511 143.805 51.5511 144.062 51.393 144.221V144.221ZM54.7377 143.267L52.5935 149.338C52.5189 149.549 52.2872 149.66 52.0761 149.585C51.865 149.511 51.7542 149.279 51.8288 149.068L53.973 142.997C54.0476 142.785 54.279 142.675 54.4904 142.749C54.7015 142.824 54.8123 143.055 54.7377 143.267V143.267ZM58.1087 146.34L55.7614 148.687C55.603 148.846 55.3462 148.846 55.1878 148.687C55.0297 148.529 55.0297 148.272 55.1878 148.114L57.2485 146.053L55.416 144.221C55.2576 144.062 55.2576 143.805 55.416 143.647C55.5741 143.489 55.8309 143.489 55.9893 143.647L58.1087 145.767C58.2671 145.925 58.2671 146.182 58.1087 146.34V146.34Z" fill="#221E1E"/>
</g>
<g clip-path="url(#clip4)">
<path d="M52.4684 168.483C49.098 168.483 46.3701 171.211 46.3701 174.582C46.3701 176.075 46.9029 177.486 47.8788 178.598C47.9119 178.565 52.8252 173.651 52.8738 173.603C52.8738 173.022 52.8738 169.476 52.8738 168.889C52.8738 168.665 52.6922 168.483 52.4684 168.483V168.483Z" fill="#221E1E"/>
<path d="M52.635 180.677V174.989L48.4531 179.171C49.638 180.211 51.1352 180.721 52.635 180.677Z" fill="#221E1E"/>
<path d="M58.1601 174.176H53.4462L53.4443 180.602C54.6974 180.402 55.8592 179.814 56.7793 178.893C57.9312 177.742 58.5656 176.21 58.5656 174.581C58.5656 174.357 58.384 174.176 58.1601 174.176V174.176Z" fill="#221E1E"/>
<path d="M58.4245 168.626C57.2726 167.474 55.7412 166.839 54.1125 166.839C53.8884 166.839 53.707 167.021 53.707 167.245V172.938C53.707 173.161 53.8877 173.343 54.1125 173.343H59.8053C60.0291 173.343 60.2108 173.162 60.2108 172.938C60.2108 171.309 59.5763 169.777 58.4245 168.626V168.626Z" fill="white"/>
</g>
<g clip-path="url(#clip5)">
<path d="M52.4684 86.5459C49.098 86.5459 46.3701 89.2732 46.3701 92.6441C46.3701 94.1373 46.9029 95.5484 47.8788 96.6602C47.9119 96.6271 52.8252 91.7138 52.8738 91.6652C52.8738 91.084 52.8738 87.5389 52.8738 86.9514C52.8738 86.7276 52.6922 86.5459 52.4684 86.5459V86.5459Z" fill="#221E1E"/>
<path d="M52.635 98.7396V93.0513L48.4531 97.2334C49.638 98.2733 51.1352 98.7837 52.635 98.7396Z" fill="#221E1E"/>
<path d="M58.1601 92.2383H53.4462L53.4443 98.6643C54.6974 98.4641 55.8592 97.8765 56.7793 96.9559C57.9312 95.8041 58.5656 94.2727 58.5656 92.6437C58.5656 92.4199 58.384 92.2383 58.1601 92.2383V92.2383Z" fill="#221E1E"/>
<path d="M58.4245 86.6881C57.2726 85.5363 55.7412 84.9019 54.1125 84.9019C53.8884 84.9019 53.707 85.0835 53.707 85.3073V91C53.707 91.2234 53.8877 91.4055 54.1125 91.4055H59.8053C60.0291 91.4055 60.2108 91.2241 60.2108 91C60.2108 89.3713 59.5763 87.84 58.4245 86.6881V86.6881Z" fill="#0058FF"/>
</g>
<path d="M362.452 167.496L355.502 151.502L371.496 158.452L366.626 159.941L366.765 160.398L366.626 159.941C365.339 160.335 364.335 161.339 363.941 162.626L362.452 167.496ZM362.45 167.501C362.45 167.501 362.45 167.501 362.45 167.501L362.45 167.501Z" fill="#F8F7F8" stroke="#323132"/>
</g>
<defs>
<filter id="filter0_d" x="14.1418" y="18.6799" width="371.716" height="229.014" filterUnits="userSpaceOnUse" color-interpolation-filters="sRGB">
<feFlood flood-opacity="0" result="BackgroundImageFix"/>
<feColorMatrix in="SourceAlpha" type="matrix" values="0 0 0 0 0 0 0 0 0 0 0 0 0 0 0 0 0 0 127 0" result="hardAlpha"/>
<feOffset dy="4.68657"/>
<feGaussianBlur stdDeviation="2.9291"/>
<feComposite in2="hardAlpha" operator="out"/>
<feColorMatrix type="matrix" values="0 0 0 0 0 0 0 0 0 0 0 0 0 0 0 0 0 0 0.25 0"/>
<feBlend mode="normal" in2="BackgroundImageFix" result="effect1_dropShadow"/>
<feBlend mode="normal" in="SourceGraphic" in2="effect1_dropShadow" result="shape"/>
</filter>
<linearGradient id="paint0_linear" x1="-25.4054" y1="10.122" x2="444.865" y2="53.9059" gradientUnits="userSpaceOnUse">
<stop stop-color="#E8E8E8"/>
<stop offset="1" stop-color="#E8E8E8"/>
<stop offset="1" stop-color="#E8E8E8"/>
</linearGradient>
<clipPath id="clip0">
<rect width="400" height="208" rx="10" fill="white"/>
</clipPath>
<clipPath id="clip1">
<rect width="372" height="207" fill="white" transform="translate(12 20)"/>
</clipPath>
<clipPath id="clip2">
<rect width="13.8406" height="13.8406" fill="white" transform="translate(46.3701 111.751)"/>
</clipPath>
<clipPath id="clip3">
<rect width="13.8406" height="13.8406" fill="white" transform="translate(46.3701 139.247)"/>
</clipPath>
<clipPath id="clip4">
<rect width="13.8406" height="13.8406" fill="white" transform="translate(46.3701 166.839)"/>
</clipPath>
<clipPath id="clip5">
<rect width="13.8406" height="13.8406" fill="white" transform="translate(46.3701 84.9019)"/>
</clipPath>
</defs>
</svg>
