<svg width="15" height="20" viewBox="0 0 15 20" fill="none" xmlns="http://www.w3.org/2000/svg">
<path d="M3.47929 19.1127C2.39053 18.5209 1.53846 17.6925 0.923077 16.6393C0.307692 15.586 0 14.4026 0 13.1008C0 11.7872 0.307692 10.6156 0.923077 9.56236C1.53846 8.50911 2.39053 7.69254 3.47929 7.08899C4.56805 6.49727 5.78698 6.20142 7.15976 6.20142C8.52071 6.20142 9.75148 6.49727 10.8402 7.08899C11.929 7.68071 12.7811 8.50911 13.3965 9.56236C14.0118 10.6156 14.3195 11.799 14.3195 13.1008C14.3195 14.4144 14.0118 15.586 13.3965 16.6393C12.7811 17.6925 11.929 18.5091 10.8402 19.1127C9.75148 19.7044 8.53255 20.0002 7.15976 20.0002C5.78698 20.0002 4.56805 19.7044 3.47929 19.1127ZM9.44379 16.9115C10.1302 16.5328 10.6509 16.0121 11.0414 15.3493C11.4201 14.6866 11.6095 13.9411 11.6095 13.1127C11.6095 12.2843 11.4201 11.5387 11.0414 10.876C10.6627 10.2133 10.1302 9.69254 9.44379 9.31384C8.7574 8.93514 8 8.74579 7.14793 8.74579C6.29586 8.74579 5.53846 8.93514 4.85207 9.31384C4.16568 9.69254 3.64497 10.2133 3.25444 10.876C2.87574 11.5387 2.68639 12.2843 2.68639 13.1127C2.68639 13.9411 2.87574 14.6866 3.25444 15.3493C3.63314 16.0121 4.16568 16.5328 4.85207 16.9115C5.53846 17.2902 6.29586 17.4795 7.14793 17.4795C8 17.4795 8.7574 17.2902 9.44379 16.9115Z" fill="#0058FF"/>
<path d="M8.85114 0L6.29492 4.53255H8.68545L12.3304 0H8.85114Z" fill="#0058FF"/>
</svg>
