<svg width="12" height="14" viewBox="0 0 12 14" fill="none" xmlns="http://www.w3.org/2000/svg">
<path d="M10.1975 4.66666H9.33333V3.62964C9.33333 1.7284 7.77778 0 5.7037 0C3.62963 0 2.07408 1.55556 2.07408 3.62964V4.66666H1.20988C0.518526 4.66666 0 5.18517 0 5.87653V12.7901C0 13.4815 0.518526 14 1.20988 14H10.0247C10.716 14 11.2346 13.4815 11.2346 12.7901V5.87653C11.4074 5.18517 10.716 4.66666 10.1975 4.66666ZM3.80247 3.62964C3.80247 2.5926 4.66667 1.72839 5.7037 1.72839C6.74074 1.72839 7.60494 2.5926 7.60494 3.62964V4.66666H3.62964V3.62964H3.80247ZM6.39506 10.8889V12.6173C6.39506 12.6173 6.39507 12.7901 6.22223 12.7901H5.35803C5.35803 12.7901 5.18518 12.7901 5.18518 12.6173V10.8889C4.66666 10.716 4.14815 10.0247 4.14815 9.50617C4.14815 8.64197 4.83951 7.95062 5.7037 7.95062C6.5679 7.95062 7.25926 8.64197 7.25926 9.50617C7.25926 10.0247 6.91358 10.716 6.39506 10.8889Z" fill="#221E1E"/>
</svg>
