<svg width="89" height="24" viewBox="0 0 89 24" fill="none" xmlns="http://www.w3.org/2000/svg">
<g clip-path="url(#clip0)">
<path fill-rule="evenodd" clip-rule="evenodd" d="M17.8986 24H6.1106C2.73733 24 0 21.2719 0 17.8986V6.1106C0 2.73733 2.73733 0 6.1106 0H17.8986C21.2719 0 24.0092 2.73733 24.0092 6.1106V17.8986C24 21.2719 21.2719 24 17.8986 24ZM9.14327 18.3687C8.29534 17.9079 7.63175 17.2627 7.15249 16.4424C6.67322 15.6221 6.43359 14.7005 6.43359 13.6867C6.43359 12.6636 6.67322 11.7512 7.15249 10.9309C7.63175 10.1106 8.29534 9.47468 9.14327 9.00464C9.9912 8.54381 10.9405 8.31339 12.0096 8.31339C13.0695 8.31339 14.0281 8.54381 14.876 9.00464C15.7239 9.46547 16.3875 10.1106 16.8668 10.9309C17.346 11.7512 17.5857 12.6728 17.5857 13.6867C17.5857 14.7097 17.346 15.6221 16.8668 16.4424C16.3875 17.2627 15.7239 17.8986 14.876 18.3687C14.0281 18.8295 13.0788 19.0599 12.0096 19.0599C10.9405 19.0599 9.9912 18.8295 9.14327 18.3687ZM13.7884 16.6544C14.323 16.3595 14.7285 15.9539 15.0327 15.4378C15.3276 14.9217 15.4751 14.341 15.4751 13.6959C15.4751 13.0507 15.3276 12.4701 15.0327 11.9539C14.7377 11.4378 14.323 11.0323 13.7884 10.7374C13.2539 10.4424 12.664 10.295 12.0004 10.295C11.3368 10.295 10.747 10.4424 10.2124 10.7374C9.67783 11.0323 9.2723 11.4378 8.96816 11.9539C8.67323 12.4701 8.52576 13.0507 8.52576 13.6959C8.52576 14.341 8.67323 14.9217 8.96816 15.4378C9.26309 15.9539 9.67783 16.3595 10.2124 16.6544C10.747 16.9493 11.3368 17.0968 12.0004 17.0968C12.664 17.0968 13.2539 16.9493 13.7884 16.6544ZM11.3367 7.01384L13.3275 3.48389H16.0372L13.1985 7.01384H11.3367Z" fill="#0058FF"/>
<path d="M33.5024 17.1536V11.0707H31.8711V9.20893H35.1891V10.5269C35.5301 10.0569 35.9725 9.68819 36.5255 9.42091C37.0785 9.15363 37.6868 9.01538 38.3688 9.01538C39.6407 9.01538 40.6361 9.43013 41.3826 10.2504C42.1199 11.0707 42.4886 12.1859 42.4886 13.5868V17.1536H43.8987V19.0154H38.9218V17.1536H40.6084V13.8357C40.6084 12.9324 40.3688 12.2135 39.8895 11.679C39.4103 11.1444 38.7743 10.8771 37.9817 10.8771C37.5024 10.8771 37.06 11.0062 36.6545 11.2734C36.2582 11.5315 35.9448 11.891 35.7144 12.3426C35.484 12.7942 35.3734 13.2919 35.3734 13.8449V17.1628H37.0508V19.0246H31.8711V17.1628H33.5024V17.1536Z" fill="#0058FF"/>
<path d="M47.4933 18.5545C46.6915 18.1122 46.0555 17.5131 45.6039 16.7297C45.1431 15.9555 44.9219 15.0799 44.9219 14.1122C44.9219 13.1444 45.1523 12.2688 45.6039 11.4946C46.0647 10.7204 46.6915 10.1122 47.4933 9.66976C48.2952 9.22736 49.1984 9.01538 50.2122 9.01538C51.2168 9.01538 52.12 9.23658 52.9311 9.66976C53.7329 10.1122 54.3689 10.7112 54.8205 11.4946C55.2813 12.2688 55.5025 13.1444 55.5025 14.1122C55.5025 15.0799 55.2721 15.9555 54.8205 16.7297C54.3597 17.5039 53.7329 18.1122 52.9311 18.5545C52.1293 18.9969 51.226 19.2089 50.2122 19.2089C49.1984 19.2089 48.2952 18.9877 47.4933 18.5545ZM51.8988 16.9232C52.4058 16.6467 52.7929 16.2596 53.0786 15.7619C53.3551 15.2734 53.5025 14.7204 53.5025 14.1029C53.5025 13.4854 53.3643 12.9324 53.0786 12.444C52.7929 11.9555 52.4058 11.5684 51.8988 11.2827C51.3919 11.0062 50.8297 10.8587 50.203 10.8587C49.5763 10.8587 49.014 10.9969 48.5071 11.2827C48.0002 11.5684 47.6131 11.9463 47.3274 12.444C47.0417 12.9324 46.9034 13.4854 46.9034 14.1029C46.9034 14.7204 47.0417 15.2734 47.3274 15.7619C47.6039 16.2504 48.0002 16.6375 48.5071 16.9232C49.014 17.2089 49.5763 17.3472 50.203 17.3472C50.8297 17.3472 51.4011 17.2089 51.8988 16.9232Z" fill="#0058FF"/>
<path d="M56.2487 17.1537H58.0551V7.15374H56.1934V5.29199H59.9076V17.1537H61.8247V19.0155H56.2394V17.1537H56.2487Z" fill="#0058FF"/>
<path d="M63.208 17.1537H65.0329V11.0707H63.208V9.20898H66.8946V17.1537H68.7011V19.0154H63.208V17.1537Z" fill="#0058FF"/>
<path d="M71.5942 17.0193V10.9363H69.9629V9.07459H73.2809V10.3465C73.6034 9.88565 74.0366 9.5262 74.5712 9.26814C75.1057 9.01008 75.6956 8.87183 76.3316 8.87183C77.8523 8.87183 78.903 9.51699 79.4928 10.8165C79.797 10.2267 80.2578 9.75662 80.8753 9.40639C81.4928 9.05616 82.1933 8.88104 82.9675 8.88104C84.2855 8.88104 85.3085 9.27736 86.0366 10.0792C86.7647 10.881 87.1242 11.9962 87.1242 13.4525V17.0193H88.5159V18.881H83.5942V17.0193H85.2256V13.7013C85.2256 12.7612 85.0136 12.0331 84.5896 11.517C84.1657 11.0009 83.5574 10.7428 82.7739 10.7428C82.3039 10.7428 81.8799 10.8718 81.5021 11.1391C81.1242 11.3972 80.8292 11.7566 80.608 12.2082C80.3961 12.6598 80.2855 13.1575 80.2855 13.7105V17.0285H81.9352V18.8903H76.7555V17.0285H78.4053V13.7105C78.4053 12.7704 78.1933 12.0423 77.7601 11.5262C77.3269 11.0101 76.7187 10.752 75.9352 10.752C75.4744 10.752 75.0597 10.881 74.6818 11.1483C74.3039 11.4064 74.009 11.7658 73.7878 12.2174C73.5758 12.6691 73.4652 13.1668 73.4652 13.7198V17.0377H75.0965V18.8995H69.9813V17.0377H71.5942V17.0193Z" fill="#0058FF"/>
<path d="M51.4656 4.42578L49.5762 7.77141H51.3365L54.037 4.42578H51.4656Z" fill="#0058FF"/>
</g>
<defs>
<clipPath id="clip0">
<rect width="88.5161" height="24" fill="white"/>
</clipPath>
</defs>
</svg>
